<svg xmlns="http://www.w3.org/2000/svg" xmlns:xlink="http://www.w3.org/1999/xlink" width="64.484" height="67.299" viewBox="0 0 64.484 67.299">
  <defs>
    <clipPath id="clip">
      <use xlink:href="#fill"/>
    </clipPath>
    <clipPath id="clip-2">
      <use xlink:href="#fill-2"/>
    </clipPath>
    <clipPath id="clip-3">
      <use xlink:href="#fill-3"/>
    </clipPath>
    <clipPath id="clip-4">
      <use xlink:href="#fill-4"/>
    </clipPath>
  </defs>
  <path id="Trazado_5" data-name="Trazado 5" d="M52.691,13.093C50.907,4.187,42.157-.188,39.126.421s-4.037,2.467-6.44,2.044S29.642-1.064,28.635.38s1.91,4.766,6.458,4.163,2.913,2.08,2.913,2.08-1,2.272-2.9,1.644S24.345,3.053,21.575,6.559s3.073-.515,5.558,1.208a11.9,11.9,0,0,1,3.046,2.054c1.4,1.643,2.917,3.2,5.571,3.207s6.694-1.629,8.093,1.066-4.667,3.195-4.667,3.195a14.379,14.379,0,0,1-6.453-2.2C29.43,13,22.848,9.751,19.567,11.6a65.2,65.2,0,0,0-7.823,4.437c-2.536,1.176-5.573,1.9-8.694-.455-1.341-.668,0,1.427,0,1.427s3.9,3.146,6.8,2.537,9.842-5.755,13.393-1.81-2.261,6.314-2.261,6.314-3.229,1.6-8.028-1.974S2.179,19.222.728,22.03.1,27.564,2.284,24.987s6.171.771,8.154,1.551,4.033,3.308,8.211,3.493c5.057.779,16.5-5.421,16.5-5.421s5.176-2.256,4.807,1.467-4.8,2.464-4.8,2.464S28.017,26.981,25,30.9s1.331,1.124,1.331,1.124,4.544-2.051,4.048,1.05-4.44,1.206-4.44,1.206-4.443-2.55-7.279-2.286-3.038,1.655-4.074,3.087c.634,2.027,1.9.783,2.531,1.044s3.663-1.02,6.2,1.679,7.753,4.177,9.866,3.679c5.149-.652,10.314-1.93,13.084-5.437S54.474,22,52.691,13.093Z" transform="translate(34.061) rotate(55)" fill="#e65d00"/>
  <g id="Trazado_4" data-name="Trazado 4" transform="translate(-45.047 -64.331)" fill="#e65d00">
    <path d="M 92.00245666503906 120.6156921386719 L 91.52736663818359 120.6156921386719 L 83.38162994384766 120.6156921386719 L 82.79788208007813 120.6156921386719 L 82.65457916259766 120.0498046875 L 80.07097625732422 109.8473434448242 L 74.72181701660156 120.209716796875 L 74.51226043701172 120.6156921386719 L 74.05538177490234 120.6156921386719 L 62.25 120.6156921386719 L 60.94414138793945 120.6156921386719 L 61.60219192504883 119.4877548217773 L 75.76863861083984 95.20541381835938 L 75.98570251464844 94.83335876464844 L 76.41645050048828 94.83335876464844 L 84.60151672363281 94.83335876464844 L 85.10610961914063 94.83335876464844 L 85.29624176025391 95.30074310302734 L 88.89744567871094 104.1534652709961 L 92.65743255615234 96.06850433349609 L 92.85915374755859 95.63477325439453 L 93.33749389648438 95.63477325439453 L 102.6244201660156 95.63477325439453 L 103.8084106445313 95.63477325439453 L 103.3025131225586 96.70523834228516 L 92.20545959472656 120.1861572265625 L 92.00245666503906 120.6156921386719 Z" stroke="none"/>
    <path d="M 91.52736663818359 119.8656921386719 L 102.6244201660156 96.38477325439453 L 93.33749389648438 96.38477325439453 L 88.85147857666016 106.0308837890625 L 84.60151672363281 95.58335876464844 L 76.41645050048828 95.58335876464844 L 62.25 119.8656921386719 L 74.05538177490234 119.8656921386719 L 80.31224060058594 107.7449188232422 L 83.38162994384766 119.8656921386719 L 91.52736663818359 119.8656921386719 M 92.47754669189453 121.3656921386719 L 91.52736663818359 121.3656921386719 L 83.38162994384766 121.3656921386719 L 82.21412658691406 121.3656921386719 L 81.92752838134766 120.2339248657227 L 79.8297119140625 111.9497985839844 L 75.38826751708984 120.5537490844727 L 74.96913146972656 121.3656921386719 L 74.05538177490234 121.3656921386719 L 62.25 121.3656921386719 L 59.63827896118164 121.3656921386719 L 60.95436859130859 119.1098175048828 L 75.12081909179688 94.82747650146484 L 75.55494689941406 94.08335876464844 L 76.41645050048828 94.08335876464844 L 84.60151672363281 94.08335876464844 L 85.61068725585938 94.08335876464844 L 85.99095916748047 95.01814270019531 L 88.94342041015625 102.2760696411133 L 91.97737884521484 95.75224304199219 L 92.38079833984375 94.88477325439453 L 93.33749389648438 94.88477325439453 L 102.6244201660156 94.88477325439453 L 104.9923934936523 94.88477325439453 L 103.980598449707 97.02570343017578 L 92.88355255126953 120.5066223144531 L 92.47754669189453 121.3656921386719 Z" stroke="none" fill="#982a06"/>
  </g>
  <path id="Trazado_1" data-name="Trazado 1" d="M65.139,119.82l14.6-24.231h5.685l5.71,13.271L96.867,96.4l7.338,0L92.763,119.82H85.318L81.77,106.6,74.534,119.82Z" transform="translate(-46.605 -64.331)" fill="#ff9c00"/>
  <g id="Grupo_1" data-name="Grupo 1" transform="translate(17.464 31.313)">
    <g id="Rectángulo_3" data-name="Rectángulo 3" transform="matrix(0.848, 0.53, -0.53, 0.848, 3.114, 19.718)" fill="none" stroke="#982a06" stroke-width="1">
      <rect id="fill" width="0.979" height="5.877" rx="0.49" stroke="none"/>
      <path d="M0,0.5h0.9794558882713318M0.5,0v5.876735210418701M0.9794558882713318,5.376735210418701h-0.9794558882713318M0.4794558882713318,5.876735210418701v-5.876735210418701" fill="none" clip-path="url(#clip)"/>
    </g>
    <g id="Rectángulo_5" data-name="Rectángulo 5" transform="translate(32.952 0) rotate(26)" fill="none" stroke="#982a06" stroke-width="1">
      <rect id="fill-2" width="0.979" height="5.157" rx="0.49" stroke="none"/>
      <path d="M0,0.5h0.979455828666687M0.5,0v5.1573662757873535M0.979455828666687,4.6573662757873535h-0.979455828666687M0.479455828666687,5.1573662757873535v-5.1573662757873535" fill="none" clip-path="url(#clip-2)"/>
    </g>
    <g id="Rectángulo_7" data-name="Rectángulo 7" transform="matrix(0.848, 0.53, -0.53, 0.848, 3.53, 22.209)" fill="none" stroke="#982a06" stroke-width="1">
      <rect id="fill-3" width="0.979" height="2.938" rx="0.49" stroke="none"/>
      <path d="M0,0.5h0.979455828666687M0.5,0v2.9383676052093506M0.979455828666687,2.4383676052093506h-0.979455828666687M0.479455828666687,2.9383676052093506v-2.9383676052093506" fill="none" clip-path="url(#clip-3)"/>
    </g>
    <g id="Rectángulo_8" data-name="Rectángulo 8" transform="translate(34.911 0) rotate(26)" fill="none" stroke="#982a06" stroke-width="1">
      <rect id="fill-4" width="0.979" height="4.178" rx="0.49" stroke="none"/>
      <path d="M0,0.5h0.979455828666687M0.5,0v4.177910804748535M0.979455828666687,3.677910804748535h-0.979455828666687M0.479455828666687,4.177910804748535v-4.177910804748535" fill="none" clip-path="url(#clip-4)"/>
    </g>
  </g>
</svg>
